# xmcd
#
# Track frame offsets:
#	150
#	4053
#	23107
#	38874
#	56966
#	79114
#	92729
#	114629
#	129769
#	143492
#	163702
#
# Disc length: 2677 seconds
#
# Revision: 23
# Processed by: cddbd v1.5.2PL0 Copyright (c) Steve Scherf et al.
# Submitted via: Jack! The Knife 20 Magnifico
#
DISCID=850a730b
DTITLE=Running Wild - Port Royal
DYEAR=1988
DGENRE=Metal
TTITLE0=Intro
TTITLE1=Port Royal
TTITLE2=Raging Fire
TTITLE3=Into The Arena
TTITLE4=Uaschitschun
TTITLE5=Final Gates
TTITLE6=Conquistadores
TTITLE7=Blown To Kingdom Come
TTITLE8=Warchild
TTITLE9=Mutiny
TTITLE10=Calico Jack
EXTD=Running Wild
EXTT0=Rolf Kasparek
EXTT1=Kasparek, Becker, Moti
EXTT2=Rolf Kasparek
EXTT3=Majk Moti
EXTT4=Rolf Kasparek
EXTT5=Jens Becker
EXTT6=Rolf Kasparek
EXTT7=Majk Moti
EXTT8=Rolf Kasparek
EXTT9=Rolf Kasparek
EXTT10=Kasparek, Moti
PLAYORDER=
